<svg width="136" height="136" viewBox="0 0 136 136" fill="none" xmlns="http://www.w3.org/2000/svg">
<g filter="url(#filter0_d_2_501)">
<rect x="33" y="17" width="70" height="70" rx="12" fill="white"/>
<path d="M48.8044 46.9485H53.8558C53.5447 46.9485 53.2516 46.805 53.0597 46.5605C52.8677 46.3161 52.8011 45.9968 52.8759 45.6937L53.5043 43.1822C53.8418 41.8304 55.052 40.8868 56.4442 40.8868H62.9484C64.6195 40.8868 65.9793 42.2466 65.9793 43.9176V45.9382C65.9793 46.4958 65.5266 46.9485 64.969 46.9485H71.0307C70.473 46.9485 70.0203 46.4958 70.0203 45.9382V43.9176C70.0203 42.2466 71.3802 40.8868 73.0512 40.8868H79.5554C80.9476 40.8868 82.1579 41.8304 82.4953 43.1822L83.1237 45.6937C83.2006 45.9948 83.1318 46.3161 82.9399 46.5605C82.7479 46.805 82.455 46.9485 82.1438 46.9485H87.1952C87.7529 46.9485 88.2055 46.4958 88.2055 45.9382V39.8765C88.2055 37.0921 85.9385 34.8251 83.1542 34.8251H52.8456C50.0613 34.8251 47.7942 37.0921 47.7942 39.8765V45.9382C47.7942 46.4958 48.2467 46.9485 48.8044 46.9485Z" fill="#FF5A3C"/>
<path d="M87.1951 48.9693H48.8043C46.02 48.9693 43.7529 51.2364 43.7529 54.0207V68.1646C43.7529 68.7223 44.2056 69.1749 44.7632 69.1749C45.3209 69.1749 45.7736 68.7223 45.7736 68.1646V65.1337H90.226V68.1646C90.226 68.7223 90.6786 69.1749 91.2363 69.1749C91.794 69.1749 92.2466 68.7223 92.2466 68.1646V54.0207C92.2465 51.2364 89.9794 48.9693 87.1951 48.9693ZM90.226 63.1132H45.7735V61.0927H90.2259L90.226 63.1132Z" fill="#FF5A3C"/>
</g>
<defs>
<filter id="filter0_d_2_501" x="0" y="0" width="136" height="136" filterUnits="userSpaceOnUse" color-interpolation-filters="sRGB">
<feFlood flood-opacity="0" result="BackgroundImageFix"/>
<feColorMatrix in="SourceAlpha" type="matrix" values="0 0 0 0 0 0 0 0 0 0 0 0 0 0 0 0 0 0 127 0" result="hardAlpha"/>
<feMorphology radius="12" operator="erode" in="SourceAlpha" result="effect1_dropShadow_2_501"/>
<feOffset dy="16"/>
<feGaussianBlur stdDeviation="22.5"/>
<feColorMatrix type="matrix" values="0 0 0 0 0 0 0 0 0 0 0 0 0 0 0 0 0 0 0.1 0"/>
<feBlend mode="normal" in2="BackgroundImageFix" result="effect1_dropShadow_2_501"/>
<feBlend mode="normal" in="SourceGraphic" in2="effect1_dropShadow_2_501" result="shape"/>
</filter>
</defs>
</svg>
