<svg width="136" height="136" viewBox="0 0 136 136" fill="none" xmlns="http://www.w3.org/2000/svg">
<g filter="url(#filter0_d_2_451)">
<rect x="33" y="17" width="70" height="70" rx="12" fill="white"/>
<path fill-rule="evenodd" clip-rule="evenodd" d="M60.2437 45.9887C49.2437 45.9887 40.3267 54.9057 40.3267 65.905C40.3267 67.6507 40.5522 69.343 40.9741 70.956H78.9187C79.8424 71.1497 80.7993 71.2519 81.7805 71.2519C89.4535 71.2519 95.6733 65.0321 95.6733 57.359C95.6733 49.686 89.4535 43.4662 81.7805 43.4662C77.2637 43.4662 73.2508 45.6223 70.7135 48.9608C67.6709 47.0769 64.0846 45.9887 60.2437 45.9887ZM76.3496 59.8788L79.4408 59.4082C79.5709 60.0021 79.8363 60.4537 80.2392 60.7598C80.6388 61.0693 81.2029 61.223 81.9227 61.223C82.7177 61.223 83.3149 61.0767 83.7185 60.7862C83.9874 60.5804 84.1215 60.3047 84.1215 59.9607C84.1215 59.7298 84.047 59.5355 83.9014 59.3824C83.7483 59.2368 83.405 59.0987 82.8748 58.9755C80.3923 58.4269 78.8212 57.9265 78.1563 57.4748C77.2346 56.8444 76.7755 55.9708 76.7755 54.8549C76.7755 53.8432 77.175 52.9954 77.97 52.3087C78.547 51.8103 79.3542 51.4927 80.3916 51.3559V49.7727H83.1707V51.3722C84.026 51.4907 84.7065 51.7196 85.2117 52.0588C85.9844 52.5809 86.518 53.3502 86.8092 54.3693L83.9197 54.907C83.7964 54.4513 83.5581 54.1005 83.2107 53.8581C82.8633 53.615 82.3669 53.4958 81.7216 53.4958C80.9076 53.4958 80.3252 53.6075 79.9704 53.8357C79.7354 53.9962 79.6196 54.2048 79.6196 54.4587C79.6196 54.6788 79.7205 54.8657 79.9257 55.0187C80.2061 55.2239 81.1649 55.5117 82.8077 55.8848C84.4499 56.258 85.5963 56.7137 86.2458 57.2548C86.8911 57.7999 87.2121 58.5651 87.2121 59.5429C87.2121 60.6068 86.7678 61.525 85.876 62.2902C85.2131 62.8611 84.3117 63.22 83.1707 63.3656V64.9454H80.3916V63.3236C79.5079 63.1787 78.7644 62.897 78.1603 62.4805C77.238 61.8419 76.634 60.9765 76.3496 59.8788ZM81.7805 47.0152C76.0672 47.0152 71.4367 51.6464 71.4367 57.359C71.4367 63.0723 76.0672 67.7035 81.7805 67.7035C87.4938 67.7035 92.1243 63.0723 92.1243 57.359C92.1243 51.6464 87.4938 47.0152 81.7805 47.0152ZM60.2437 24.806C55.303 24.806 51.2983 28.8108 51.2983 33.7515C51.2983 38.6921 55.303 42.6969 60.2437 42.6969C65.1837 42.6969 69.1891 38.6921 69.1891 33.7515C69.1891 28.8108 65.1837 24.806 60.2437 24.806Z" fill="#FF5A3C"/>
</g>
<defs>
<filter id="filter0_d_2_451" x="0" y="0" width="136" height="136" filterUnits="userSpaceOnUse" color-interpolation-filters="sRGB">
<feFlood flood-opacity="0" result="BackgroundImageFix"/>
<feColorMatrix in="SourceAlpha" type="matrix" values="0 0 0 0 0 0 0 0 0 0 0 0 0 0 0 0 0 0 127 0" result="hardAlpha"/>
<feMorphology radius="12" operator="erode" in="SourceAlpha" result="effect1_dropShadow_2_451"/>
<feOffset dy="16"/>
<feGaussianBlur stdDeviation="22.5"/>
<feColorMatrix type="matrix" values="0 0 0 0 0 0 0 0 0 0 0 0 0 0 0 0 0 0 0.1 0"/>
<feBlend mode="normal" in2="BackgroundImageFix" result="effect1_dropShadow_2_451"/>
<feBlend mode="normal" in="SourceGraphic" in2="effect1_dropShadow_2_451" result="shape"/>
</filter>
</defs>
</svg>
