<svg width="136" height="136" viewBox="0 0 136 136" fill="none" xmlns="http://www.w3.org/2000/svg">
<g filter="url(#filter0_d_2_471)">
<rect x="33" y="17" width="70" height="70" rx="12" fill="white"/>
<path d="M66.945 68.4815H61.3911H59.5973C54.8791 68.4815 51.0392 68.2009 51.0392 63.5388V51.7818H48.3224C47.3955 51.7818 46.563 51.2259 46.2086 50.3777C45.8552 49.5248 46.0524 48.5466 46.7039 47.8948L64.7661 29.9058C65.6292 29.0453 66.779 28.5709 67.9993 28.5709C69.2205 28.5709 70.3702 29.0453 71.2333 29.9058C74.2226 32.883 76.4646 35.116 77.9593 36.6046C78.0677 36.7126 78.368 37.0116 78.4324 37.0758C78.4754 37.1186 78.4968 36.8237 78.4968 36.1912C78.6083 34.6191 79.9067 33.3782 81.5147 33.3782H81.5327C83.2112 33.3782 84.5696 34.7311 84.5696 36.4018V42.6834C84.5696 42.8504 84.5468 42.9956 84.5211 43.1436L89.2955 47.8948C89.9499 48.5466 90.1442 49.5248 89.7899 50.3777C89.4365 51.2259 88.6029 51.7818 87.677 51.7818H84.5696V53.2849C87.8216 55.4497 89.9646 59.1488 89.9646 63.3484C89.9646 70.0203 84.5559 75.429 77.884 75.429C73.0475 75.429 68.8747 72.5868 66.945 68.4815ZM77.884 74.3308C83.9494 74.3308 88.8664 69.4138 88.8664 63.3484C88.8664 57.283 83.9494 52.366 77.884 52.366C71.8186 52.366 66.9016 57.283 66.9016 63.3484C66.9016 69.4138 71.8186 74.3308 77.884 74.3308ZM82.4259 65.3638C82.4259 66.1719 82.1363 66.8705 81.5569 67.4595C80.9776 68.0485 80.1379 68.4258 79.0377 68.5913V69.3361C79.0377 69.8201 78.6455 70.2124 78.1615 70.2124C77.6776 70.2124 77.2852 69.8201 77.2852 69.3361V68.6497C76.555 68.6011 75.8638 68.4769 75.2114 68.2773C74.8055 68.1531 74.443 68.011 74.1238 67.851C73.8164 67.697 73.6845 67.3284 73.8243 67.0142C73.829 67.0037 73.8335 66.9937 73.8377 66.9841L74.3127 65.9175C74.4248 65.6656 74.7199 65.5523 74.9717 65.6644C74.983 65.6694 74.9941 65.6749 75.005 65.6807C75.0303 65.6943 75.054 65.7067 75.076 65.7179C75.3988 65.8811 75.7507 66.0211 76.1315 66.1378C76.7352 66.3228 77.3291 66.4153 77.9132 66.4153C79.0232 66.4153 79.5781 66.1378 79.5781 65.5828C79.5781 65.2908 79.4199 65.0741 79.1034 64.933C78.787 64.7918 78.2783 64.6433 77.5773 64.4875C76.8081 64.322 76.1656 64.1443 75.6495 63.9545C75.1335 63.7646 74.6905 63.4604 74.3205 63.0417C73.9506 62.6231 73.7656 62.0584 73.7656 61.3476C73.7656 60.5103 74.0674 59.7923 74.6711 59.1935C75.2747 58.5947 76.1461 58.2272 77.2852 58.0909V57.3607C77.2852 56.8767 77.6776 56.4844 78.1615 56.4844C78.6455 56.4844 79.0377 56.8767 79.0377 57.3607V58.0617C79.5927 58.1104 80.1258 58.2077 80.6369 58.3538C80.9972 58.4567 81.3296 58.5814 81.6343 58.7279C81.6597 58.7401 81.6885 58.7545 81.7207 58.771C81.8813 58.8538 81.9516 59.0458 81.8824 59.2127L81.2194 60.8102C81.1645 60.9424 81.013 61.0051 80.8807 60.9502C80.8749 60.9478 80.8691 60.9452 80.8635 60.9423C80.8149 60.9179 80.7736 60.8975 80.7393 60.8813C79.8968 60.4814 79.0765 60.2815 78.2783 60.2815C77.7039 60.2815 77.2852 60.3667 77.0223 60.5371C76.7595 60.7075 76.628 60.929 76.628 61.2016C76.628 61.4742 76.7838 61.6787 77.0954 61.815C77.4069 61.9513 77.9084 62.0924 78.5996 62.2385C79.3785 62.404 80.0235 62.5817 80.5347 62.7715C81.0458 62.9614 81.4888 63.2632 81.8637 63.677C82.2385 64.0908 82.4259 64.653 82.4259 65.3638Z" fill="#FF5A3C"/>
</g>
<defs>
<filter id="filter0_d_2_471" x="0" y="0" width="136" height="136" filterUnits="userSpaceOnUse" color-interpolation-filters="sRGB">
<feFlood flood-opacity="0" result="BackgroundImageFix"/>
<feColorMatrix in="SourceAlpha" type="matrix" values="0 0 0 0 0 0 0 0 0 0 0 0 0 0 0 0 0 0 127 0" result="hardAlpha"/>
<feMorphology radius="12" operator="erode" in="SourceAlpha" result="effect1_dropShadow_2_471"/>
<feOffset dy="16"/>
<feGaussianBlur stdDeviation="22.5"/>
<feColorMatrix type="matrix" values="0 0 0 0 0 0 0 0 0 0 0 0 0 0 0 0 0 0 0.1 0"/>
<feBlend mode="normal" in2="BackgroundImageFix" result="effect1_dropShadow_2_471"/>
<feBlend mode="normal" in="SourceGraphic" in2="effect1_dropShadow_2_471" result="shape"/>
</filter>
</defs>
</svg>
