<svg width="136" height="136" viewBox="0 0 136 136" fill="none" xmlns="http://www.w3.org/2000/svg">
<g filter="url(#filter0_d_2_491)">
<rect x="33" y="17" width="70" height="70" rx="12" fill="white"/>
<path d="M55.2953 38.4072C55.8126 37.8212 55.7926 36.927 55.2322 36.3667C54.6496 35.7839 53.7047 35.7839 53.1219 36.3667L52.3896 37.099V31.1016C52.3896 29.648 53.5722 28.4654 55.0258 28.4654C56.4794 28.4654 57.6621 29.648 57.6621 31.1016C57.6621 31.9257 58.3302 32.5939 59.1543 32.5939C59.9784 32.5939 60.6465 31.9257 60.6465 31.1016C60.6465 28.0024 58.125 25.481 55.0258 25.481C51.9266 25.481 49.4051 28.0024 49.4051 31.1016V37.099L48.6728 36.3667C48.0901 35.7839 47.1452 35.7839 46.5625 36.3667C46.0021 36.927 45.9822 37.8211 46.4994 38.4072H55.2953Z" fill="#FF5A3C"/>
<path d="M91.9753 41.392H44.0244C43.2003 41.392 42.5322 42.0601 42.5322 42.8842C42.5322 43.7083 43.2003 44.3764 44.0244 44.3764H44.5858C45.3588 47.3026 46.1331 50.2284 46.9092 53.1537C47.8508 56.7028 50.3118 59.4304 53.5052 60.7367L52.1258 62.4372C51.6066 63.0772 51.7047 64.0169 52.3446 64.5361C52.6211 64.7604 52.9535 64.8695 53.2837 64.8695C53.718 64.8695 54.1486 64.6808 54.4435 64.3173L56.7066 61.5273C57.0896 61.565 57.4775 61.5866 57.8707 61.5866H78.1329C78.5299 61.5866 78.9215 61.5646 79.3081 61.5262L81.5722 64.3174C81.8671 64.6809 82.2977 64.8696 82.7319 64.8696C83.0622 64.8696 83.3947 64.7605 83.671 64.5362C84.3111 64.017 84.4091 63.0773 83.8899 62.4373L82.5075 60.7332C85.6975 59.4251 88.1553 56.698 89.0954 53.1504C89.9337 49.9861 90.6999 47.1035 91.4274 44.3765H91.9751C92.7992 44.3765 93.4673 43.7084 93.4673 42.8843C93.4673 42.0602 92.7994 41.392 91.9753 41.392Z" fill="#FF5A3C"/>
</g>
<defs>
<filter id="filter0_d_2_491" x="0" y="0" width="136" height="136" filterUnits="userSpaceOnUse" color-interpolation-filters="sRGB">
<feFlood flood-opacity="0" result="BackgroundImageFix"/>
<feColorMatrix in="SourceAlpha" type="matrix" values="0 0 0 0 0 0 0 0 0 0 0 0 0 0 0 0 0 0 127 0" result="hardAlpha"/>
<feMorphology radius="12" operator="erode" in="SourceAlpha" result="effect1_dropShadow_2_491"/>
<feOffset dy="16"/>
<feGaussianBlur stdDeviation="22.5"/>
<feColorMatrix type="matrix" values="0 0 0 0 0 0 0 0 0 0 0 0 0 0 0 0 0 0 0.1 0"/>
<feBlend mode="normal" in2="BackgroundImageFix" result="effect1_dropShadow_2_491"/>
<feBlend mode="normal" in="SourceGraphic" in2="effect1_dropShadow_2_491" result="shape"/>
</filter>
</defs>
</svg>
